<svg width="200" height="60" viewBox="0 0 200 60" xmlns="http://www.w3.org/2000/svg">
  <!-- Book icon centered -->
  <g transform="translate(100,30)">
    <!-- Left pages -->
    <path d="M-15,-8 Q-15,-12 -10,-12 Q-5,-10 0,-8" fill="none" stroke="#1e3a8a" stroke-width="2"/>
    <path d="M-15,-4 Q-15,-8 -10,-8 Q-5,-6 0,-4" fill="none" stroke="#1e3a8a" stroke-width="2"/>
    <path d="M-15,0 Q-15,-4 -10,-4 Q-5,-2 0,0" fill="none" stroke="#1e3a8a" stroke-width="2"/>
    <path d="M-15,4 Q-15,0 -10,0 Q-5,2 0,4" fill="none" stroke="#1e3a8a" stroke-width="2"/>
    <path d="M-15,8 Q-15,4 -10,4 Q-5,6 0,8" fill="none" stroke="#1e3a8a" stroke-width="2"/>
    
    <!-- Right pages -->
    <path d="M0,-8 Q5,-10 10,-12 Q15,-12 15,-8" fill="none" stroke="#1e3a8a" stroke-width="2"/>
    <path d="M0,-4 Q5,-6 10,-8 Q15,-8 15,-4" fill="none" stroke="#1e3a8a" stroke-width="2"/>
    <path d="M0,0 Q5,-2 10,-4 Q15,-4 15,0" fill="none" stroke="#1e3a8a" stroke-width="2"/>
    <path d="M0,4 Q5,2 10,0 Q15,0 15,4" fill="none" stroke="#1e3a8a" stroke-width="2"/>
    <path d="M0,8 Q5,6 10,4 Q15,4 15,8" fill="none" stroke="#1e3a8a" stroke-width="2"/>
    
    <!-- Center binding -->
    <line x1="0" y1="-12" x2="0" y2="12" stroke="#1e3a8a" stroke-width="2"/>
  </g>

</svg>